ply
format ascii 1.0
comment Created by Blender 2.72 (sub 0) - www.blender.org, source file: 'cube.blend'
element vertex 26
property float x
property float y
property float z
property float nx
property float ny
property float nz
property float s
property float t
property uchar red
property uchar green
property uchar blue
element face 12
property list uchar uint vertex_indices
end_header
1.000000 -1.000000 -1.000000 0.000000 -0.000000 -1.000000 0.500000 0.250043 255 255 255
-1.000000 -1.000000 -1.000000 0.000000 -0.000000 -1.000000 0.749957 0.250043 255 255 255
-1.000000 1.000000 -1.000000 0.000000 -0.000000 -1.000000 0.749957 0.500000 255 255 255
-1.000000 1.000000 1.000000 0.000000 -0.000000 1.000000 0.000087 0.500000 255 255 255
-1.000000 -1.000000 1.000000 0.000000 -0.000000 1.000000 0.000087 0.250044 255 255 255
0.999999 -1.000001 1.000000 0.000000 -0.000000 1.000000 0.250043 0.250044 255 255 255
1.000000 1.000000 -1.000000 1.000000 -0.000001 -0.000000 0.500000 0.500000 255 255 255
1.000000 0.999999 1.000000 1.000000 -0.000001 -0.000000 0.250043 0.500000 255 255 255
0.999999 -1.000001 1.000000 1.000000 -0.000001 -0.000000 0.250043 0.250044 255 255 255
1.000000 -1.000000 -1.000000 -0.000000 -1.000000 -0.000000 0.500000 0.250043 255 255 255
0.999999 -1.000001 1.000000 -0.000000 -1.000000 -0.000000 0.500000 0.000087 255 255 255
-1.000000 -1.000000 1.000000 -0.000000 -1.000000 -0.000000 0.749957 0.000087 255 255 255
-1.000000 -1.000000 1.000000 -1.000000 0.000000 -0.000000 0.999913 0.250043 255 255 255
-1.000000 1.000000 1.000000 -1.000000 0.000000 -0.000000 0.999913 0.500000 255 255 255
-1.000000 1.000000 -1.000000 -1.000000 0.000000 -0.000000 0.749957 0.500000 255 255 255
1.000000 1.000000 -1.000000 0.000000 1.000000 0.000000 0.500000 0.500000 255 255 255
-1.000000 1.000000 -1.000000 0.000000 1.000000 0.000000 0.749957 0.500000 255 255 255
-1.000000 1.000000 1.000000 0.000000 1.000000 0.000000 0.749957 0.749957 255 255 255
1.000000 1.000000 -1.000000 0.000000 0.000000 -1.000000 0.500000 0.500000 255 255 255
1.000000 0.999999 1.000000 -0.000000 -0.000000 1.000000 0.250043 0.500000 255 255 255
1.000000 -1.000000 -1.000000 1.000000 0.000000 0.000000 0.500000 0.250043 255 255 255
1.000000 1.000000 -1.000000 1.000000 0.000000 0.000000 0.500000 0.500000 255 255 255
0.999999 -1.000001 1.000000 1.000000 0.000000 0.000000 0.250043 0.250044 255 255 255
-1.000000 -1.000000 -1.000000 -0.000000 -1.000000 0.000000 0.749957 0.250043 255 255 255
-1.000000 -1.000000 -1.000000 -1.000000 0.000000 -0.000000 0.749957 0.250043 255 255 255
1.000000 0.999999 1.000000 0.000000 1.000000 0.000000 0.500000 0.749957 255 255 255
3 0 1 2
3 3 4 5
3 6 7 8
3 9 10 11
3 12 13 14
3 15 16 17
3 18 0 2
3 19 3 5
3 20 21 22
3 23 9 11
3 24 12 14
3 25 15 17
