ply
format ascii 1.0
comment Created by Blender 2.68 (sub 0) - www.blender.org, source file: ''
element vertex 482
property float x
property float y
property float z
property uchar red
property uchar green
property uchar blue
element face 960
property list uchar uint vertex_indices
end_header
-0.195090 0.000000 -0.980785 255 255 255
-0.382683 0.000000 -0.923880 255 255 255
-0.375330 0.074658 -0.923880 255 255 255
-0.980785 0.000000 -0.195090 255 255 255
-1.000000 0.000000 0.000000 255 255 255
-0.961940 0.191342 -0.195090 255 255 255
-0.555570 0.000000 0.831470 255 255 255
-0.382683 0.000000 0.923880 255 255 255
-0.544895 0.108386 0.831470 255 255 255
-0.923880 0.000000 -0.382683 255 255 255
-0.707107 0.000000 0.707107 255 255 255
-0.831470 0.000000 -0.555570 255 255 255
-0.815493 0.162212 -0.555570 255 255 255
-0.831470 0.000000 0.555570 255 255 255
-0.815493 0.162212 0.555570 255 255 255
-0.707107 0.000000 -0.707107 255 255 255
-0.923880 0.000000 0.382683 255 255 255
-0.555570 0.000000 -0.831470 255 255 255
-0.693520 0.137950 -0.707107 255 255 255
-0.980785 0.000000 0.195090 255 255 255
-0.906127 0.180240 0.382683 255 255 255
-0.961940 0.191342 0.195090 255 255 255
-0.195090 0.000000 0.980785 255 255 255
-0.375330 0.074658 0.923880 255 255 255
-0.906127 0.180240 -0.382683 255 255 255
-0.853553 0.353554 -0.382683 255 255 255
-0.693520 0.137950 0.707107 255 255 255
-0.768178 0.318190 0.555570 255 255 255
-0.768178 0.318190 -0.555570 255 255 255
-0.853553 0.353553 0.382683 255 255 255
-0.544895 0.108386 -0.831470 255 255 255
-0.653281 0.270598 -0.707107 255 255 255
-0.513280 0.212608 -0.831470 255 255 255
-0.980785 0.195090 0.000000 255 255 255
-0.923880 0.382684 0.000000 255 255 255
-0.191342 0.038060 0.980785 255 255 255
-0.353553 0.146447 0.923880 255 255 255
-0.191341 0.038060 -0.980785 255 255 255
-0.353553 0.146447 -0.923880 255 255 255
-0.906127 0.375330 -0.195090 255 255 255
-0.513280 0.212608 0.831470 255 255 255
-0.180240 0.074658 -0.980785 255 255 255
-0.318189 0.212608 -0.923880 255 255 255
-0.815493 0.544895 -0.195090 255 255 255
-0.318190 0.212608 0.923880 255 255 255
-0.768178 0.513280 -0.382683 255 255 255
-0.653281 0.270598 0.707107 255 255 255
-0.461940 0.308658 0.831470 255 255 255
-0.691342 0.461940 0.555570 255 255 255
-0.691342 0.461940 -0.555570 255 255 255
-0.587938 0.392848 -0.707107 255 255 255
-0.906127 0.375330 0.195090 255 255 255
-0.768178 0.513280 0.382683 255 255 255
-0.831470 0.555570 0.000000 255 255 255
-0.180240 0.074658 0.980785 255 255 255
-0.162212 0.108387 0.980785 255 255 255
-0.461940 0.308658 -0.831470 255 255 255
-0.500000 0.500000 -0.707107 255 255 255
-0.815493 0.544895 0.195090 255 255 255
-0.653281 0.653282 0.382683 255 255 255
-0.392847 0.392848 -0.831470 255 255 255
-0.707107 0.707107 0.000000 255 255 255
-0.270598 0.270598 0.923880 255 255 255
-0.162211 0.108386 -0.980785 255 255 255
-0.137949 0.137950 -0.980785 255 255 255
-0.693520 0.693520 -0.195090 255 255 255
-0.587938 0.392848 0.707107 255 255 255
-0.392847 0.392848 0.831470 255 255 255
-0.587938 0.587938 -0.555570 255 255 255
-0.500000 0.500000 0.707107 255 255 255
-0.653281 0.653282 -0.382683 255 255 255
-0.513280 0.768178 -0.382683 255 255 255
-0.587938 0.587938 0.555570 255 255 255
-0.461939 0.691342 0.555570 255 255 255
-0.461939 0.691342 -0.555570 255 255 255
-0.513280 0.768178 0.382683 255 255 255
-0.392847 0.587938 -0.707107 255 255 255
-0.693520 0.693520 0.195090 255 255 255
-0.270598 0.270598 -0.923880 255 255 255
-0.212607 0.318190 -0.923880 255 255 255
-0.555570 0.831470 0.000000 255 255 255
-0.137950 0.137950 0.980785 255 255 255
-0.108386 0.162212 0.980785 255 255 255
-0.308658 0.461940 0.831470 255 255 255
-0.392847 0.587938 0.707107 255 255 255
-0.108386 0.162212 -0.980785 255 255 255
-0.146446 0.353554 -0.923880 255 255 255
-0.544895 0.815493 -0.195090 255 255 255
-0.382683 0.923880 0.000000 255 255 255
-0.212607 0.318190 0.923880 255 255 255
-0.212607 0.513280 0.831470 255 255 255
-0.353553 0.853554 -0.382683 255 255 255
-0.318189 0.768178 0.555570 255 255 255
-0.318189 0.768178 -0.555570 255 255 255
-0.353553 0.853554 0.382683 255 255 255
-0.308658 0.461940 -0.831470 255 255 255
-0.212607 0.513280 -0.831470 255 255 255
-0.544895 0.815493 0.195090 255 255 255
-0.074658 0.180240 0.980785 255 255 255
-0.270598 0.653282 -0.707107 255 255 255
-0.137949 0.693520 -0.707107 255 255 255
-0.375330 0.906128 0.195090 255 255 255
-0.180240 0.906128 0.382683 255 255 255
-0.108386 0.544895 -0.831470 255 255 255
-0.195090 0.980785 0.000000 255 255 255
-0.146446 0.353554 0.923880 255 255 255
-0.038060 0.191342 0.980785 255 255 255
-0.074658 0.180240 -0.980785 255 255 255
-0.038060 0.191342 -0.980785 255 255 255
-0.375330 0.906128 -0.195090 255 255 255
-0.074658 0.375331 0.923880 255 255 255
-0.180240 0.906128 -0.382683 255 255 255
-0.270598 0.653282 0.707107 255 255 255
-0.108386 0.544895 0.831470 255 255 255
-0.162211 0.815493 0.555570 255 255 255
-0.162211 0.815493 -0.555570 255 255 255
0.000000 0.923880 -0.382683 255 255 255
-0.137949 0.693520 0.707107 255 255 255
0.000000 0.831470 0.555570 255 255 255
0.000000 0.831470 -0.555570 255 255 255
0.000000 0.923880 0.382683 255 255 255
0.000000 0.707107 -0.707107 255 255 255
-0.191341 0.961940 0.195090 255 255 255
-0.074658 0.375330 -0.923880 255 255 255
0.000000 0.382684 -0.923880 255 255 255
0.000000 1.000000 0.000000 255 255 255
0.000000 0.382684 0.923880 255 255 255
-0.191341 0.961940 -0.195090 255 255 255
0.000000 0.555570 0.831470 255 255 255
0.000000 0.195091 0.980785 255 255 255
0.074658 0.375330 0.923880 255 255 255
0.000000 0.195090 -0.980785 255 255 255
0.074658 0.375330 -0.923880 255 255 255
0.000000 0.980785 -0.195090 255 255 255
0.195091 0.980785 0.000000 255 255 255
0.108387 0.544895 0.831470 255 255 255
0.180240 0.906128 -0.382683 255 255 255
0.000000 0.707107 0.707107 255 255 255
0.137950 0.693520 0.707107 255 255 255
0.162212 0.815493 -0.555570 255 255 255
0.162212 0.815493 0.555570 255 255 255
0.000000 0.555570 -0.831470 255 255 255
0.137950 0.693520 -0.707107 255 255 255
0.000000 0.980785 0.195090 255 255 255
0.180240 0.906128 0.382683 255 255 255
0.318190 0.768178 0.555570 255 255 255
0.108387 0.544895 -0.831470 255 255 255
0.270599 0.653282 -0.707107 255 255 255
0.191342 0.961940 0.195090 255 255 255
0.353554 0.853553 0.382683 255 255 255
0.212608 0.513280 -0.831470 255 255 255
0.382684 0.923880 0.000000 255 255 255
0.038061 0.191342 0.980785 255 255 255
0.074658 0.180240 0.980785 255 255 255
0.038061 0.191342 -0.980785 255 255 255
0.146447 0.353553 -0.923880 255 255 255
0.191342 0.961940 -0.195090 255 255 255
0.212608 0.513280 0.831470 255 255 255
0.353554 0.853554 -0.382683 255 255 255
0.270599 0.653282 0.707107 255 255 255
0.318190 0.768178 -0.555570 255 255 255
0.375331 0.906127 -0.195090 255 255 255
0.513280 0.768178 -0.382683 255 255 255
0.308659 0.461940 0.831470 255 255 255
0.392848 0.587938 0.707107 255 255 255
0.461940 0.691342 -0.555570 255 255 255
0.513280 0.768178 0.382683 255 255 255
0.392848 0.587938 -0.707107 255 255 255
0.375331 0.906127 0.195090 255 255 255
0.212608 0.318190 -0.923880 255 255 255
0.555571 0.831470 0.000000 255 255 255
0.146447 0.353554 0.923880 255 255 255
0.212608 0.318190 0.923880 255 255 255
0.074658 0.180240 -0.980785 255 255 255
0.308659 0.461940 -0.831470 255 255 255
0.392848 0.392847 -0.831470 255 255 255
0.544895 0.815493 0.195090 255 255 255
0.707107 0.707107 0.000000 255 255 255
0.108387 0.162212 0.980785 255 255 255
0.270599 0.270598 0.923880 255 255 255
0.108387 0.162212 -0.980785 255 255 255
0.270598 0.270598 -0.923880 255 255 255
0.544895 0.815493 -0.195090 255 255 255
0.653282 0.653282 -0.382683 255 255 255
0.500000 0.500000 0.707107 255 255 255
0.461940 0.691342 0.555570 255 255 255
0.587938 0.587938 0.555570 255 255 255
0.587938 0.587938 -0.555570 255 255 255
0.653282 0.653281 0.382683 255 255 255
0.500000 0.500000 -0.707107 255 255 255
0.691342 0.461940 -0.555570 255 255 255
0.768178 0.513280 0.382683 255 255 255
0.587938 0.392847 -0.707107 255 255 255
0.693520 0.693520 0.195090 255 255 255
0.318190 0.212608 -0.923880 255 255 255
0.831470 0.555570 0.000000 255 255 255
0.137950 0.137950 0.980785 255 255 255
0.162212 0.108386 0.980785 255 255 255
0.137950 0.137950 -0.980785 255 255 255
0.693520 0.693520 -0.195090 255 255 255
0.392848 0.392848 0.831470 255 255 255
0.461940 0.308658 0.831470 255 255 255
0.768178 0.513280 -0.382683 255 255 255
0.587938 0.392847 0.707107 255 255 255
0.815493 0.544895 -0.195090 255 255 255
0.853554 0.353553 -0.382683 255 255 255
0.653282 0.270598 0.707107 255 255 255
0.691342 0.461940 0.555570 255 255 255
0.768178 0.318190 -0.555570 255 255 255
0.768178 0.318190 0.555570 255 255 255
0.461940 0.308658 -0.831470 255 255 255
0.653282 0.270598 -0.707107 255 255 255
0.815493 0.544895 0.195090 255 255 255
0.906128 0.375330 0.195090 255 255 255
0.513280 0.212607 -0.831470 255 255 255
0.923880 0.382683 0.000000 255 255 255
0.318190 0.212608 0.923880 255 255 255
0.353554 0.146447 0.923880 255 255 255
0.162212 0.108386 -0.980785 255 255 255
0.353554 0.146447 -0.923880 255 255 255
0.513280 0.212608 0.831470 255 255 255
0.544895 0.108386 -0.831470 255 255 255
0.961940 0.191342 0.195090 255 255 255
0.180240 0.074658 0.980785 255 255 255
0.375331 0.074658 0.923880 255 255 255
0.180240 0.074658 -0.980785 255 255 255
0.375331 0.074658 -0.923880 255 255 255
0.906128 0.375330 -0.195090 255 255 255
0.980785 0.195090 0.000000 255 255 255
0.906128 0.180240 -0.382683 255 255 255
0.693520 0.137950 0.707107 255 255 255
0.815493 0.162212 0.555570 255 255 255
0.693520 0.137950 -0.707107 255 255 255
0.853554 0.353553 0.382683 255 255 255
0.906128 0.180240 0.382683 255 255 255
0.815493 0.162212 -0.555570 255 255 255
0.831470 -0.000000 -0.555570 255 255 255
0.831470 -0.000000 0.555570 255 255 255
0.707107 -0.000000 -0.707107 255 255 255
0.923880 -0.000000 0.382683 255 255 255
0.382684 -0.000000 -0.923880 255 255 255
1.000000 -0.000000 0.000000 255 255 255
0.191342 0.038060 0.980785 255 255 255
0.195091 -0.000000 0.980785 255 255 255
0.191342 0.038060 -0.980785 255 255 255
0.961940 0.191342 -0.195090 255 255 255
0.980785 -0.000000 -0.195090 255 255 255
0.544896 0.108386 0.831470 255 255 255
0.555571 -0.000000 0.831470 255 255 255
0.707107 -0.000000 0.707107 255 255 255
0.923880 -0.000000 -0.382683 255 255 255
0.906128 -0.180240 -0.382683 255 255 255
0.693520 -0.137950 0.707107 255 255 255
0.815493 -0.162212 -0.555570 255 255 255
0.815493 -0.162212 0.555570 255 255 255
0.555571 -0.000000 -0.831470 255 255 255
0.693520 -0.137950 -0.707107 255 255 255
0.980785 -0.000000 0.195090 255 255 255
0.961940 -0.191342 0.195090 255 255 255
0.544895 -0.108386 -0.831470 255 255 255
0.980785 -0.195090 0.000000 255 255 255
0.382684 -0.000000 0.923880 255 255 255
0.375331 -0.074658 0.923880 255 255 255
0.195091 0.000000 -0.980785 255 255 255
0.191342 -0.038060 -0.980785 255 255 255
0.544896 -0.108386 0.831470 255 255 255
0.375331 -0.074658 -0.923880 255 255 255
0.513280 -0.212608 -0.831470 255 255 255
0.906128 -0.375330 0.195090 255 255 255
0.191342 -0.038060 0.980785 255 255 255
0.180240 -0.074658 0.980785 255 255 255
0.180240 -0.074658 -0.980785 255 255 255
0.961940 -0.191342 -0.195090 255 255 255
0.923880 -0.382683 0.000000 255 255 255
0.513280 -0.212608 0.831470 255 255 255
0.853554 -0.353553 -0.382683 255 255 255
0.653282 -0.270598 0.707107 255 255 255
0.653282 -0.270598 -0.707107 255 255 255
0.906128 -0.180240 0.382683 255 255 255
0.768178 -0.318190 0.555570 255 255 255
0.853554 -0.353554 0.382683 255 255 255
0.587938 -0.392848 0.707107 255 255 255
0.768178 -0.318190 -0.555570 255 255 255
0.587938 -0.392848 -0.707107 255 255 255
0.691342 -0.461940 0.555570 255 255 255
0.461940 -0.308658 -0.831470 255 255 255
0.768178 -0.513280 0.382683 255 255 255
0.353554 -0.146447 -0.923880 255 255 255
0.318190 -0.212608 -0.923880 255 255 255
0.831470 -0.555570 0.000000 255 255 255
0.353554 -0.146447 0.923880 255 255 255
0.318190 -0.212608 0.923880 255 255 255
0.906128 -0.375330 -0.195090 255 255 255
0.768178 -0.513280 -0.382683 255 255 255
0.461940 -0.308658 0.831470 255 255 255
0.815493 -0.544895 -0.195090 255 255 255
0.707107 -0.707107 0.000000 255 255 255
0.270598 -0.270598 0.923880 255 255 255
0.653282 -0.653282 -0.382683 255 255 255
0.392848 -0.392848 0.831470 255 255 255
0.691342 -0.461940 -0.555570 255 255 255
0.587938 -0.587938 -0.555570 255 255 255
0.587938 -0.587938 0.555570 255 255 255
0.500000 -0.500000 -0.707107 255 255 255
0.815493 -0.544895 0.195090 255 255 255
0.653282 -0.653282 0.382683 255 255 255
0.270598 -0.270598 -0.923880 255 255 255
0.162212 -0.108387 0.980785 255 255 255
0.162212 -0.108386 -0.980785 255 255 255
0.392848 -0.392848 -0.831470 255 255 255
0.392848 -0.587938 -0.707107 255 255 255
0.693520 -0.693520 0.195090 255 255 255
0.513280 -0.768178 0.382683 255 255 255
0.212608 -0.318190 -0.923880 255 255 255
0.544895 -0.815493 0.195090 255 255 255
0.137950 -0.137950 0.980785 255 255 255
0.212608 -0.318190 0.923880 255 255 255
0.137950 -0.137950 -0.980785 255 255 255
0.693520 -0.693520 -0.195090 255 255 255
0.555570 -0.831469 0.000000 255 255 255
0.308659 -0.461940 0.831470 255 255 255
0.513280 -0.768178 -0.382683 255 255 255
0.500000 -0.500000 0.707107 255 255 255
0.461940 -0.691342 -0.555570 255 255 255
0.461940 -0.691342 0.555570 255 255 255
0.318190 -0.768178 -0.555570 255 255 255
0.392848 -0.587938 0.707107 255 255 255
0.270598 -0.653281 0.707107 255 255 255
0.318190 -0.768178 0.555570 255 255 255
0.308659 -0.461940 -0.831470 255 255 255
0.270598 -0.653281 -0.707107 255 255 255
0.353554 -0.853553 0.382683 255 255 255
0.146447 -0.353553 -0.923880 255 255 255
0.382683 -0.923879 0.000000 255 255 255
0.108387 -0.162212 0.980785 255 255 255
0.074658 -0.180240 0.980785 255 255 255
0.108387 -0.162212 -0.980785 255 255 255
0.544895 -0.815493 -0.195090 255 255 255
0.146447 -0.353554 0.923880 255 255 255
0.353554 -0.853553 -0.382683 255 255 255
0.074658 -0.180240 -0.980785 255 255 255
0.074658 -0.375330 -0.923880 255 255 255
0.375330 -0.906127 -0.195090 255 255 255
0.195090 -0.980785 0.000000 255 255 255
0.212608 -0.513280 0.831470 255 255 255
0.108387 -0.544895 0.831470 255 255 255
0.180240 -0.906128 -0.382683 255 255 255
0.137950 -0.693520 0.707107 255 255 255
0.162212 -0.815493 -0.555570 255 255 255
0.162212 -0.815493 0.555570 255 255 255
0.212608 -0.513280 -0.831470 255 255 255
0.137950 -0.693520 -0.707107 255 255 255
0.375330 -0.906127 0.195090 255 255 255
0.180240 -0.906127 0.382683 255 255 255
0.108387 -0.544895 -0.831470 255 255 255
0.038061 -0.191342 0.980785 255 255 255
0.000000 -0.707107 -0.707107 255 255 255
0.191342 -0.961940 0.195090 255 255 255
0.000000 -0.923879 0.382683 255 255 255
0.000000 -0.555570 -0.831470 255 255 255
0.000000 -1.000000 0.000000 255 255 255
0.074658 -0.375330 0.923880 255 255 255
0.000000 -0.382684 0.923880 255 255 255
0.038061 -0.191342 -0.980785 255 255 255
0.000000 -0.382683 -0.923880 255 255 255
0.191342 -0.961940 -0.195090 255 255 255
0.000000 -0.555570 0.831470 255 255 255
0.000000 -0.923880 -0.382683 255 255 255
0.000000 -0.707107 0.707107 255 255 255
0.000000 -0.831469 0.555570 255 255 255
0.000000 -0.831469 -0.555570 255 255 255
-0.162211 -0.815493 -0.555570 255 255 255
-0.137949 -0.693520 0.707107 255 255 255
-0.162211 -0.815493 0.555570 255 255 255
-0.137949 -0.693520 -0.707107 255 255 255
0.000000 -0.980785 0.195090 255 255 255
-0.180240 -0.906127 0.382683 255 255 255
-0.074658 -0.375330 -0.923880 255 255 255
-0.195090 -0.980785 0.000000 255 255 255
0.000000 -0.195090 0.980785 255 255 255
-0.074658 -0.375330 0.923880 255 255 255
0.000000 -0.195090 -0.980785 255 255 255
0.000000 -0.980785 -0.195090 255 255 255
-0.108386 -0.544895 0.831470 255 255 255
-0.180240 -0.906127 -0.382683 255 255 255
-0.038060 -0.191342 -0.980785 255 255 255
-0.074657 -0.180240 -0.980785 255 255 255
-0.191342 -0.961939 -0.195090 255 255 255
-0.382683 -0.923879 0.000000 255 255 255
-0.212607 -0.513280 0.831470 255 255 255
-0.353553 -0.853553 -0.382683 255 255 255
-0.270598 -0.653281 0.707107 255 255 255
-0.318189 -0.768177 0.555570 255 255 255
-0.318189 -0.768177 -0.555570 255 255 255
-0.108386 -0.544895 -0.831470 255 255 255
-0.270598 -0.653281 -0.707107 255 255 255
-0.191342 -0.961939 0.195090 255 255 255
-0.353553 -0.853553 0.382683 255 255 255
-0.146446 -0.353553 -0.923880 255 255 255
-0.038060 -0.191342 0.980785 255 255 255
-0.146446 -0.353553 0.923880 255 255 255
-0.212607 -0.513280 -0.831470 255 255 255
-0.392847 -0.587938 -0.707107 255 255 255
-0.375330 -0.906127 0.195090 255 255 255
-0.513280 -0.768178 0.382683 255 255 255
-0.212607 -0.318190 -0.923880 255 255 255
-0.544895 -0.815493 0.195090 255 255 255
-0.074658 -0.180240 0.980785 255 255 255
-0.108386 -0.162212 0.980785 255 255 255
-0.375330 -0.906127 -0.195090 255 255 255
-0.555570 -0.831469 0.000000 255 255 255
-0.212607 -0.318190 0.923880 255 255 255
-0.513280 -0.768178 -0.382683 255 255 255
-0.392847 -0.587938 0.707107 255 255 255
-0.461939 -0.691341 -0.555570 255 255 255
-0.461939 -0.691341 0.555570 255 255 255
-0.308658 -0.461940 0.831470 255 255 255
-0.392847 -0.392847 0.831470 255 255 255
-0.587937 -0.587937 -0.555570 255 255 255
-0.587937 -0.587937 0.555570 255 255 255
-0.308658 -0.461940 -0.831470 255 255 255
-0.500000 -0.500000 -0.707107 255 255 255
-0.653281 -0.653281 0.382683 255 255 255
-0.270598 -0.270598 -0.923880 255 255 255
-0.693519 -0.693519 0.195090 255 255 255
-0.270598 -0.270598 0.923880 255 255 255
-0.108386 -0.162212 -0.980785 255 255 255
-0.544895 -0.815493 -0.195090 255 255 255
-0.693519 -0.693519 -0.195090 255 255 255
-0.653281 -0.653281 -0.382683 255 255 255
-0.707106 -0.707106 0.000000 255 255 255
-0.815493 -0.544895 0.195090 255 255 255
-0.137949 -0.137950 0.980785 255 255 255
-0.162211 -0.108386 0.980785 255 255 255
-0.137949 -0.137950 -0.980785 255 255 255
-0.318189 -0.212608 -0.923880 255 255 255
-0.815493 -0.544895 -0.195090 255 255 255
-0.318189 -0.212608 0.923880 255 255 255
-0.768178 -0.513280 -0.382683 255 255 255
-0.500000 -0.500000 0.707107 255 255 255
-0.587937 -0.392847 0.707107 255 255 255
-0.691341 -0.461939 0.555570 255 255 255
-0.691341 -0.461939 -0.555570 255 255 255
-0.392847 -0.392847 -0.831470 255 255 255
-0.587937 -0.392847 -0.707107 255 255 255
-0.768177 -0.318189 -0.555570 255 255 255
-0.768177 -0.513280 0.382683 255 255 255
-0.768177 -0.318189 0.555570 255 255 255
-0.461939 -0.308658 -0.831470 255 255 255
-0.653281 -0.270598 -0.707107 255 255 255
-0.906127 -0.375330 0.195090 255 255 255
-0.353553 -0.146447 -0.923880 255 255 255
-0.831469 -0.555570 0.000000 255 255 255
-0.353553 -0.146447 0.923880 255 255 255
-0.162211 -0.108386 -0.980785 255 255 255
-0.906127 -0.375330 -0.195090 255 255 255
-0.461939 -0.308658 0.831470 255 255 255
-0.853553 -0.353553 -0.382683 255 255 255
-0.513280 -0.212607 0.831470 255 255 255
-0.906127 -0.180240 -0.382683 255 255 255
-0.653281 -0.270598 0.707107 255 255 255
-0.544895 -0.108386 0.831470 255 255 255
-0.815492 -0.162211 -0.555570 255 255 255
-0.815492 -0.162211 0.555570 255 255 255
-0.853553 -0.353553 0.382683 255 255 255
-0.513280 -0.212607 -0.831470 255 255 255
-0.693520 -0.137950 -0.707107 255 255 255
-0.961939 -0.191341 0.195090 255 255 255
-0.375330 -0.074658 -0.923880 255 255 255
-0.923879 -0.382683 0.000000 255 255 255
-0.180240 -0.074658 0.980785 255 255 255
-0.191341 -0.038060 0.980785 255 255 255
-0.180240 -0.074658 -0.980785 255 255 255
-0.961939 -0.191341 -0.195090 255 255 255
0.000000 0.000000 -1.000000 255 255 255
0.000000 -0.000000 1.000000 255 255 255
-0.191341 -0.038060 -0.980785 255 255 255
-0.544895 -0.108386 -0.831470 255 255 255
-0.980784 -0.195090 0.000000 255 255 255
-0.375330 -0.074658 0.923880 255 255 255
-0.693520 -0.137950 0.707107 255 255 255
-0.906127 -0.180240 0.382683 255 255 255
3 0 1 2
3 3 4 5
3 6 7 8
3 9 3 5
3 10 6 8
3 11 9 12
3 13 10 14
3 15 11 12
3 16 13 14
3 17 15 18
3 19 16 20
3 1 17 2
3 4 19 21
3 7 22 23
3 12 24 25
3 14 26 27
3 18 12 28
3 20 14 29
3 30 18 31
3 21 20 29
3 2 30 32
3 33 21 34
3 23 35 36
3 37 2 38
3 5 33 34
3 8 23 36
3 24 5 39
3 26 8 40
3 41 38 42
3 39 34 43
3 40 36 44
3 25 39 45
3 46 40 47
3 28 25 45
3 27 46 48
3 31 28 49
3 29 27 48
3 32 31 50
3 51 29 52
3 38 32 42
3 34 51 53
3 36 54 55
3 56 50 57
3 58 52 59
3 42 56 60
3 53 58 61
3 44 55 62
3 63 42 64
3 43 53 65
3 47 44 62
3 45 43 65
3 66 47 67
3 49 45 68
3 48 66 69
3 50 49 68
3 52 48 59
3 68 70 71
3 72 69 73
3 57 68 74
3 59 72 75
3 60 57 76
3 77 59 75
3 78 60 79
3 61 77 80
3 62 81 82
3 64 78 79
3 65 61 80
3 67 62 83
3 70 65 71
3 69 67 84
3 85 79 86
3 87 80 88
3 83 89 90
3 71 87 91
3 84 83 90
3 74 71 91
3 73 84 92
3 76 74 93
3 75 73 94
3 95 76 96
3 97 75 94
3 79 95 96
3 80 97 88
3 89 82 98
3 96 99 100
3 101 94 102
3 86 96 103
3 88 101 104
3 105 98 106
3 107 86 108
3 109 88 104
3 90 105 110
3 91 109 111
3 112 90 113
3 93 91 111
3 92 112 114
3 99 93 115
3 94 92 114
3 115 111 116
3 114 117 118
3 100 115 119
3 102 114 120
3 103 100 121
3 122 102 120
3 123 103 124
3 104 122 125
3 110 106 126
3 108 123 124
3 127 104 125
3 113 110 128
3 111 127 116
3 117 113 128
3 126 129 130
3 131 124 132
3 133 125 134
3 128 126 135
3 116 133 136
3 137 128 135
3 119 116 136
3 118 137 138
3 121 119 139
3 120 118 140
3 141 121 142
3 143 120 144
3 124 141 132
3 125 143 134
3 144 140 145
3 146 142 147
3 148 144 149
3 132 146 150
3 134 148 151
3 130 152 153
3 154 132 155
3 156 134 151
3 135 130 157
3 136 156 158
3 138 135 157
3 139 136 158
3 140 138 159
3 142 139 160
3 158 161 162
3 159 157 163
3 160 158 162
3 145 159 164
3 147 160 165
3 149 145 166
3 150 147 167
3 168 149 166
3 155 150 169
3 151 168 170
3 171 153 172
3 173 155 169
3 161 151 170
3 157 171 172
3 169 174 175
3 170 176 177
3 172 178 179
3 180 169 181
3 182 170 177
3 163 172 179
3 162 182 183
3 164 163 184
3 165 162 183
3 185 164 186
3 167 165 187
3 166 185 188
3 174 167 189
3 176 166 188
3 189 187 190
3 188 186 191
3 175 189 192
3 193 188 191
3 181 175 194
3 177 193 195
3 179 196 197
3 198 181 194
3 199 177 195
3 200 179 201
3 183 199 202
3 184 200 203
3 187 183 202
3 186 184 203
3 202 204 205
3 203 201 206
3 190 202 205
3 207 203 206
3 192 190 208
3 191 207 209
3 210 192 211
3 212 191 213
3 194 210 214
3 195 212 215
3 216 197 217
3 218 194 219
3 204 195 215
3 201 216 220
3 219 214 221
3 215 213 222
3 217 223 224
3 225 219 226
3 227 215 228
3 220 217 224
3 205 227 229
3 206 220 230
3 208 205 229
3 209 206 231
3 211 208 232
3 233 209 231
3 214 211 232
3 213 233 234
3 232 235 236
3 234 231 237
3 221 232 238
3 222 234 239
3 226 221 240
3 228 222 241
3 224 242 243
3 244 226 240
3 245 228 246
3 247 224 248
3 229 245 246
3 230 247 249
3 235 229 250
3 231 230 249
3 250 246 251
3 249 248 252
3 236 250 251
3 237 249 252
3 238 236 253
3 239 237 254
3 255 238 256
3 257 239 258
3 240 255 259
3 241 257 260
3 261 243 262
3 263 240 264
3 246 241 260
3 248 261 265
3 266 259 267
3 260 258 268
3 262 269 270
3 264 266 271
3 272 260 273
3 265 262 274
3 251 272 275
3 252 265 276
3 253 251 275
3 254 252 276
3 256 253 277
3 278 254 279
3 259 256 277
3 258 278 280
3 279 276 281
3 277 282 283
3 280 279 284
3 267 277 285
3 268 280 286
3 287 267 288
3 273 268 289
3 290 270 291
3 271 287 288
3 292 273 289
3 274 290 291
3 275 292 293
3 276 274 294
3 282 275 293
3 295 289 296
3 294 291 297
3 293 295 298
3 281 294 299
3 300 293 301
3 284 281 302
3 283 300 301
3 286 284 302
3 285 283 303
3 304 286 305
3 288 285 306
3 289 304 296
3 291 307 297
3 308 288 306
3 309 303 310
3 311 305 312
3 306 309 313
3 296 311 314
3 297 315 316
3 317 306 313
3 318 296 319
3 299 297 320
3 298 318 321
3 322 299 320
3 301 298 323
3 302 322 324
3 303 301 323
3 305 302 324
3 323 321 325
3 324 326 327
3 310 323 325
3 312 324 328
3 329 310 330
3 314 312 331
3 313 329 332
3 319 314 333
3 316 334 335
3 336 313 332
3 337 319 333
3 320 316 338
3 321 337 339
3 326 320 327
3 340 332 341
3 342 333 343
3 344 338 345
3 339 342 346
3 327 344 345
3 325 339 346
3 328 327 347
3 330 325 348
3 331 328 349
3 350 330 351
3 352 331 353
3 332 350 354
3 333 352 343
3 338 335 355
3 354 351 356
3 357 353 358
3 341 354 359
3 343 357 360
3 361 355 362
3 363 341 364
3 365 343 360
3 345 361 366
3 346 365 367
3 347 345 368
3 348 346 367
3 349 347 369
3 351 348 370
3 353 349 369
3 370 367 371
3 369 368 372
3 356 370 371
3 358 369 373
3 359 356 374
3 375 358 376
3 364 359 377
3 360 375 378
3 362 379 380
3 381 364 377
3 382 360 378
3 366 362 383
3 367 382 384
3 368 366 383
3 385 377 386
3 387 378 388
3 383 380 389
3 384 387 390
3 372 383 391
3 371 384 390
3 373 372 392
3 374 371 393
3 376 373 392
3 394 374 395
3 396 376 397
3 377 394 398
3 378 396 388
3 380 399 400
3 401 395 402
3 403 397 404
3 398 401 405
3 388 403 406
3 400 407 408
3 386 398 405
3 409 388 410
3 389 400 411
3 390 409 412
3 391 389 413
3 393 390 414
3 392 391 413
3 395 393 414
3 397 392 415
3 413 416 417
3 414 412 418
3 415 413 419
3 402 414 418
3 404 415 419
3 420 402 421
3 406 404 422
3 405 420 423
3 410 406 424
3 411 408 425
3 426 405 423
3 427 410 428
3 416 411 417
3 412 427 429
3 430 424 431
3 425 432 433
3 434 423 435
3 428 430 436
3 417 425 437
3 429 428 438
3 439 417 440
3 418 429 438
3 419 439 441
3 421 418 442
3 422 419 441
3 443 421 444
3 424 422 431
3 423 443 435
3 444 442 445
3 446 441 447
3 448 444 449
3 431 446 450
3 435 448 451
3 452 431 450
3 437 433 453
3 454 435 451
3 436 452 455
3 456 437 453
3 438 436 457
3 440 456 458
3 442 438 457
3 441 440 447
3 457 455 459
3 460 458 461
3 445 457 462
3 447 460 463
3 449 445 462
3 464 447 463
3 465 449 466
3 450 464 467
3 451 465 468
3 469 450 467
3 453 470 471
3 472 451 468
3 455 469 473
3 458 453 461
3 474 0 37
3 22 475 35
3 35 475 54
3 474 37 41
3 474 41 63
3 54 475 55
3 55 475 81
3 474 63 64
3 81 475 82
3 474 64 85
3 474 85 107
3 82 475 98
3 98 475 106
3 474 107 108
3 106 475 129
3 474 108 131
3 474 131 154
3 129 475 152
3 152 475 153
3 474 154 173
3 153 475 178
3 474 173 180
3 474 180 198
3 178 475 196
3 196 475 197
3 474 198 218
3 474 218 225
3 197 475 223
3 474 225 244
3 223 475 242
3 242 475 243
3 474 244 263
3 474 263 264
3 243 475 269
3 269 475 270
3 474 264 271
3 270 475 307
3 474 271 308
3 474 308 317
3 307 475 315
3 315 475 334
3 474 317 336
3 334 475 335
3 474 336 340
3 474 340 363
3 335 475 355
3 355 475 379
3 474 363 381
3 379 475 399
3 474 381 385
3 474 385 386
3 399 475 407
3 407 475 408
3 474 386 426
3 408 475 432
3 474 426 434
3 474 434 454
3 432 475 433
3 433 475 470
3 474 454 472
3 474 472 476
3 470 475 471
3 468 477 1
3 478 467 19
3 471 22 479
3 476 468 0
3 473 478 3
3 461 479 7
3 474 476 0
3 459 473 9
3 480 461 6
3 462 459 11
3 463 480 10
3 466 462 15
3 481 463 13
3 477 466 17
3 467 481 16
3 475 22 471
3 37 0 2
3 436 455 457
3 39 43 45
3 24 9 5
3 26 10 8
3 322 326 324
3 240 266 264
3 18 15 12
3 20 16 14
3 30 17 18
3 21 19 20
3 433 470 453
3 33 4 21
3 411 425 417
3 28 12 25
3 268 304 289
3 31 18 28
3 86 123 108
3 32 30 31
3 51 21 29
3 38 2 32
3 357 375 360
3 41 37 38
3 39 5 34
3 40 8 36
3 25 24 39
3 46 26 40
3 63 41 42
3 261 262 265
3 47 40 44
3 46 66 48
3 66 46 47
3 49 28 45
3 297 316 320
3 50 31 49
3 52 29 48
3 56 32 50
3 58 51 52
3 103 141 124
3 342 365 346
3 44 36 55
3 60 56 57
3 77 58 59
3 78 42 60
3 220 247 230
3 427 428 429
3 129 152 130
3 247 248 249
3 67 47 62
3 70 45 65
3 69 66 67
3 298 321 323
3 72 48 69
3 57 50 68
3 285 309 306
3 74 68 71
3 412 429 418
3 76 57 74
3 329 350 332
3 95 60 76
3 97 77 75
3 193 212 195
3 382 387 384
3 89 62 82
3 85 64 79
3 87 65 80
3 141 146 132
3 387 409 390
3 383 389 391
3 107 85 86
3 109 87 88
3 282 300 283
3 185 186 188
3 112 84 90
3 93 74 91
3 67 83 84
3 99 76 93
3 87 109 91
3 9 24 12
3 101 97 94
3 86 79 96
3 97 101 88
3 105 89 98
3 103 96 100
3 122 101 102
3 123 86 103
3 101 122 104
3 110 105 106
3 206 230 231
3 127 109 104
3 113 90 110
3 109 127 111
3 117 112 113
3 115 93 111
3 452 469 455
3 100 99 115
3 102 94 114
3 119 115 116
3 112 117 114
3 121 100 119
3 318 337 321
3 141 103 121
3 143 122 120
3 390 412 414
3 122 143 125
3 408 432 425
3 131 108 124
3 133 127 125
3 262 290 274
3 127 133 116
3 137 117 128
3 307 315 297
3 154 131 132
3 156 133 134
3 26 46 27
3 133 156 136
3 138 137 135
3 139 119 136
3 140 118 138
3 142 121 139
3 144 120 140
3 146 141 142
3 148 143 144
3 277 283 285
3 143 148 134
3 149 144 145
3 150 146 147
3 168 148 149
3 155 132 150
3 148 168 151
3 171 130 153
3 173 154 155
3 161 156 151
3 212 213 215
3 156 161 158
3 159 138 157
3 160 139 158
3 145 140 159
3 147 142 160
3 161 182 162
3 164 159 163
3 165 160 162
3 185 145 164
3 167 147 165
3 281 322 302
3 174 150 167
3 176 168 166
3 48 72 59
3 168 176 170
3 42 78 64
3 180 173 169
3 182 161 170
3 163 157 172
3 181 169 175
3 309 329 313
3 270 307 291
3 198 180 181
3 199 182 177
3 200 163 179
3 182 199 183
3 199 204 202
3 187 165 183
3 321 339 325
3 189 167 187
3 65 87 71
3 175 174 189
3 193 176 188
3 192 189 190
3 367 384 371
3 210 175 192
3 212 193 191
3 439 440 441
3 293 298 301
3 216 179 197
3 218 198 194
3 204 199 195
3 4 33 5
3 77 97 80
3 110 126 128
3 190 187 202
3 207 186 203
3 347 368 369
3 359 394 377
3 208 190 205
3 209 207 206
3 211 192 208
3 233 191 209
3 214 210 211
3 84 112 92
3 219 194 214
3 221 255 240
3 338 361 345
3 225 218 219
3 227 204 215
3 175 210 194
3 226 219 221
3 228 215 222
3 377 398 386
3 244 225 226
3 245 227 228
3 247 220 224
3 257 258 260
3 246 272 251
3 235 208 229
3 130 171 157
3 460 480 463
3 234 233 231
3 221 214 232
3 222 213 234
3 238 232 236
3 239 234 237
3 255 221 238
3 257 222 239
3 380 400 389
3 69 84 73
3 261 224 243
3 263 244 240
3 440 460 447
3 401 420 405
3 250 229 246
3 58 77 61
3 236 235 250
3 237 231 249
3 399 407 400
3 420 443 423
3 253 236 251
3 254 237 252
3 256 238 253
3 278 239 254
3 259 255 256
3 7 23 8
3 266 240 259
3 117 137 118
3 153 178 172
3 223 242 224
3 272 246 260
3 372 391 392
3 287 266 267
3 273 260 268
3 290 262 270
3 243 269 262
3 292 272 273
3 150 174 169
3 200 201 203
3 51 58 53
3 282 253 275
3 279 254 276
3 361 362 366
3 280 278 279
3 267 259 277
3 268 258 280
3 284 279 281
3 34 53 43
3 286 280 284
3 362 380 383
3 304 268 286
3 164 184 186
3 267 285 288
3 35 54 36
3 308 271 288
3 295 292 289
3 294 274 291
3 292 295 293
3 281 276 294
3 300 282 293
3 318 295 296
3 299 294 297
3 295 318 298
3 322 281 299
3 345 366 368
3 126 130 135
3 303 283 301
3 305 286 302
3 309 285 303
3 311 304 305
3 265 274 276
3 337 342 339
3 106 129 126
3 317 308 306
3 329 309 310
3 314 311 312
3 72 73 75
3 319 296 314
3 417 456 440
3 336 317 313
3 337 318 319
3 60 95 79
3 464 481 467
3 326 322 320
3 253 282 277
3 45 70 68
3 310 303 323
3 312 305 324
3 176 193 177
3 328 324 327
3 330 310 325
3 331 312 328
3 350 329 330
3 352 314 331
3 21 51 34
3 163 200 184
3 338 316 335
3 340 336 332
3 342 337 333
3 344 320 338
3 314 352 333
3 428 436 438
3 363 340 341
3 365 342 343
3 239 278 258
3 145 185 166
3 347 327 345
3 348 325 346
3 349 328 347
3 351 330 348
3 353 331 349
3 354 350 351
3 357 352 353
3 341 332 354
3 365 382 367
3 361 338 355
3 359 354 356
3 375 357 358
3 364 341 359
3 352 357 343
3 379 399 380
3 381 363 364
3 382 365 360
3 10 26 14
3 179 216 201
3 89 105 90
3 370 348 367
3 191 233 213
3 356 351 370
3 358 353 369
3 201 220 206
3 373 369 372
3 374 356 371
3 376 358 373
3 394 359 374
3 396 375 376
3 320 344 327
3 430 452 436
3 266 287 271
3 385 381 377
3 387 382 378
3 22 35 23
3 409 427 412
3 372 368 383
3 355 379 362
3 409 387 388
3 216 217 220
3 375 396 378
3 32 56 42
3 393 371 390
3 186 207 191
3 395 374 393
3 397 376 392
3 401 394 395
3 403 396 397
3 17 30 2
3 197 223 217
3 55 81 62
3 420 401 402
3 406 403 404
3 394 401 398
3 410 388 406
3 411 400 408
3 426 386 405
3 427 409 410
3 416 389 411
3 222 257 241
3 248 265 252
3 224 261 248
3 415 392 413
3 402 395 414
3 404 397 415
3 439 413 417
3 208 235 232
3 422 446 431
3 421 402 418
3 422 404 419
3 443 420 421
3 424 406 422
3 14 27 29
3 430 410 424
3 178 196 179
3 434 426 423
3 413 439 419
3 315 334 316
3 389 416 413
3 452 430 431
3 437 425 433
3 454 434 435
3 410 430 428
3 456 417 437
3 62 89 83
3 76 99 96
3 442 418 438
3 396 403 388
3 444 421 442
3 446 422 441
3 448 443 444
3 469 478 473
3 304 311 296
3 449 444 445
3 464 446 447
3 465 448 449
3 448 465 451
3 455 473 459
3 469 452 450
3 53 61 65
3 472 454 451
3 446 464 450
3 458 456 453
3 204 227 205
3 460 440 458
3 445 442 457
3 457 459 462
3 228 241 246
3 480 460 461
3 478 4 3
3 227 245 229
3 466 449 462
3 481 464 463
3 477 465 466
3 73 92 94
3 443 448 435
3 478 469 467
3 479 453 471
3 476 472 468
3 465 477 468
3 272 292 275
3 477 17 1
3 4 478 19
3 479 22 7
3 468 1 0
3 453 479 461
3 6 461 7
3 473 3 9
3 10 480 6
3 459 9 11
3 13 463 10
3 462 11 15
3 16 481 13
3 466 15 17
3 19 467 16
3 114 118 120
