ply
format ascii 1.0
comment Created by Blender 2.72 (sub 0) - www.blender.org, source file: 'gun.blend'
element vertex 24
property float x
property float y
property float z
property float nx
property float ny
property float nz
property float s
property float t
property uchar red
property uchar green
property uchar blue
element face 12
property list uchar uint vertex_indices
end_header
0.636460 -3.501070 0.201262 -1.000000 0.000000 0.000000 0.816911 0.000000 255 255 255
0.636460 -0.020158 0.201262 -1.000000 0.000000 0.000000 0.816911 1.000000 255 255 255
0.636460 -0.020158 -0.201261 -1.000000 0.000000 0.000000 0.633823 1.000000 255 255 255
1.131933 -3.501070 0.201262 -0.000000 0.000000 1.000000 0.225367 1.000000 255 255 255
1.131933 -0.020158 0.201262 -0.000000 0.000000 1.000000 0.225367 0.000000 255 255 255
0.636460 -0.020158 0.201262 -0.000000 0.000000 1.000000 0.450734 0.000000 255 255 255
1.131933 -3.501070 -0.201261 1.000000 0.000000 0.000000 0.450734 1.000000 255 255 255
1.131933 -0.020158 -0.201261 1.000000 0.000000 0.000000 0.450734 0.000000 255 255 255
1.131933 -0.020158 0.201262 1.000000 0.000000 0.000000 0.633823 0.000000 255 255 255
0.636460 -3.501070 -0.201261 -0.000000 -0.000000 -1.000000 0.225367 0.000000 255 255 255
0.636460 -0.020158 -0.201261 -0.000000 -0.000000 -1.000000 0.225367 1.000000 255 255 255
1.131933 -0.020158 -0.201261 -0.000000 -0.000000 -1.000000 0.000000 1.000000 255 255 255
0.636460 -0.020158 0.201262 0.000000 1.000000 -0.000000 0.816912 0.284680 255 255 255
1.131933 -0.020158 0.201262 0.000000 1.000000 -0.000000 0.816911 0.142340 255 255 255
1.131933 -0.020158 -0.201261 0.000000 1.000000 -0.000000 1.000000 0.142340 255 255 255
1.131933 -3.501070 0.201262 0.000000 -1.000000 0.000000 1.000000 0.000000 255 255 255
0.636460 -3.501070 0.201262 0.000000 -1.000000 0.000000 1.000000 0.142340 255 255 255
0.636460 -3.501070 -0.201261 0.000000 -1.000000 0.000000 0.816912 0.142340 255 255 255
0.636460 -3.501070 -0.201261 -1.000000 -0.000000 -0.000000 0.633823 0.000000 255 255 255
0.636460 -3.501070 0.201262 0.000000 0.000000 1.000000 0.450734 1.000000 255 255 255
1.131933 -3.501070 0.201262 1.000000 0.000000 -0.000000 0.633823 1.000000 255 255 255
1.131933 -3.501070 -0.201261 0.000000 -0.000000 -1.000000 0.000000 0.000000 255 255 255
0.636460 -0.020158 -0.201261 0.000000 1.000000 0.000000 1.000000 0.284680 255 255 255
1.131933 -3.501070 -0.201261 0.000000 -1.000000 0.000000 0.816911 0.000000 255 255 255
3 0 1 2
3 3 4 5
3 6 7 8
3 9 10 11
3 12 13 14
3 15 16 17
3 18 0 2
3 19 3 5
3 20 6 8
3 21 9 11
3 22 12 14
3 23 15 17
